<?xml version="1.0" encoding="UTF-8"?>
<svg width="2994px" height="1541px" viewBox="0 0 2994 1541" version="1.1" xmlns="http://www.w3.org/2000/svg" xmlns:xlink="http://www.w3.org/1999/xlink">
    <!-- Generator: Sketch 51.1 (57501) - http://www.bohemiancoding.com/sketch -->
    <title>bgi2</title>
    <desc>Created with Sketch.</desc>
    <defs>
        <linearGradient x1="93.5495892%" y1="25.9409159%" x2="4.73699336%" y2="72.3444172%" id="linearGradient-1">
            <stop stop-color="#FAA712" offset="0%"></stop>
            <stop stop-color="#EC4904" offset="100%"></stop>
        </linearGradient>
        <filter x="0.0%" y="0.0%" width="100.0%" height="100.0%" filterUnits="objectBoundingBox" id="filter-2">
            <feGaussianBlur stdDeviation="0" in="SourceGraphic"></feGaussianBlur>
        </filter>
    </defs>
    <g id="bgi2" stroke="none" stroke-width="1" fill="none" fill-rule="evenodd">
        <path d="M120.420961,1861.5949 L3244.99726,484.457746 L3273.55093,590.603888 L133.714892,1974.46667 C139.63209,2021.59419 143.042832,2057.66367 136.436157,2083.43299 C130.243827,2107.58616 124.600871,2151.2553 103.368425,2166.50463 C84.2850407,2180.21047 49.4632064,2165.84956 43.6774056,2180.38445 C40.3516213,2188.73937 53.0485676,2209.30994 49.1561136,2217.87994 C21.0736508,2279.70898 -59.6676592,2381.01067 -193.067817,2521.78502 L-675.303526,2207.2714 L-523.04065,1792.06149 L-576.979154,1591.54908 L-424.935943,1524.537 L-401.023103,1459.32841 L-602.306913,1548.04297 L-614.410212,1503.04985 L-379.009317,1399.2984 L-144.614856,760.121554 C-127.253624,864.081687 -61.350387,864.149308 -32.5587533,915.24941 C-8.77581027,957.459965 -20.8469853,1057.32514 -13.3710769,1077.38146 C-9.1498037,1088.70626 29.6840144,1099.42561 33.2691812,1107.80018 C43.9615786,1132.77652 42.0541389,1168.05708 53.0044028,1185.39987 C56.775743,1191.37283 60.4977474,1197.56417 64.1706157,1203.96966 L3051.01246,-112.461904 L3063.11576,-67.4687821 L85.5821624,1244.86023 C92.5167187,1259.30519 99.2574656,1274.56823 105.805986,1290.61587 L3088.44352,-23.9626673 L3168.84436,274.921512 L190.170656,1587.75302 C190.704773,1590.40184 191.236557,1593.05874 191.765917,1595.7237 C193.695,1605.43529 181.24226,1623.15034 154.407697,1648.86886 C151.84324,1682.96864 148.355599,1705.29847 143.944776,1715.85835 C136.139398,1734.54506 114.377409,1738.25362 114.483207,1749.16581 C114.880437,1790.13653 117.260478,1827.57246 120.420961,1861.5949 Z" id="Combined-Shape" fill="url(#linearGradient-1)" fill-rule="nonzero" filter="url(#filter-2)" transform="translate(1299.123702, 1204.661558) rotate(10.000000) translate(-1299.123702, -1204.661558) "></path>
    </g>
</svg>