<?xml version="1.0" encoding="UTF-8"?>
<svg width="2994px" height="1541px" viewBox="0 0 2994 1541" version="1.1" xmlns="http://www.w3.org/2000/svg" xmlns:xlink="http://www.w3.org/1999/xlink">
    <!-- Generator: Sketch 51.1 (57501) - http://www.bohemiancoding.com/sketch -->
    <title>bgi3</title>
    <desc>Created with Sketch.</desc>
    <defs>
        <linearGradient x1="16.6470438%" y1="-15.4026454%" x2="90.4492284%" y2="127.261936%" id="linearGradient-1">
            <stop stop-color="#C30A55" offset="0%"></stop>
            <stop stop-color="#D91045" offset="100%"></stop>
        </linearGradient>
        <filter x="0.0%" y="0.0%" width="100.0%" height="100.0%" filterUnits="objectBoundingBox" id="filter-2">
            <feGaussianBlur stdDeviation="0" in="SourceGraphic"></feGaussianBlur>
        </filter>
    </defs>
    <g id="bgi3" stroke="none" stroke-width="1" fill="none" fill-rule="evenodd">
        <path d="M-31.1197275,-285.940859 L377.402904,-285.940859 L590.596857,-183.063652 L865.139867,-285.940859 C893.97667,-247.14936 948.364509,-227.753611 1028.30338,-227.753611 C1059.57065,-227.753611 1107.38268,-87.9181454 1334.83612,-87.9181454 C1361.3564,-87.9181454 1439.73023,-161.550365 1575.88027,-183.063652 C1635.18413,-192.434349 1710.19054,-17.431157 1786.03997,-12.6586152 C1852.01219,-8.5075598 1917.96167,-174.274384 1983.10621,-183.063652 C2050.8461,-192.203083 2135.20056,-172.160276 2201.10925,-183.063652 C2296.09098,-198.776625 2362.01085,-277.689451 2444.64561,-285.940859 C2596.28124,-301.082277 2671.72804,-227.753611 2737.4419,-227.753611 C2787.42298,-227.753611 2935.90244,-247.14936 3182.88027,-285.940859 L3182.88027,561.059141 C3178.29402,491.971774 3164.15898,455.56605 3140.47518,451.841968 C2988.59983,427.960832 2806.96828,507.921743 2737.4419,511.278019 C2571.71309,519.278316 2434.2622,598.930917 2345.46154,598.930917 C2108.83326,598.930917 1905.30466,704.949297 1786.03997,707.414331 C1673.63947,709.737491 1553.55751,627.701504 1448.74803,598.930917 C1349.11084,571.580144 1263.00954,597.43658 1220.45427,598.930917 C1154.40951,601.250091 1068.64415,650.513841 1028.30338,650.021823 C978.641306,649.416118 822.358609,511.454919 786.919155,511.278019 C733.147643,511.009613 675.25514,561.401092 631.806206,561.059141 C585.855526,560.6975 458.540322,451.841968 415.716174,451.841968 C-191.929128,451.841968 -340.874429,488.247693 -31.1197275,561.059141 L-31.1197275,-285.940859 Z" id="Rectangle-56" fill="url(#linearGradient-1)" fill-rule="nonzero" filter="url(#filter-2)"></path>
    </g>
</svg>